<svg id="Layer_1" data-name="Layer 1" xmlns="http://www.w3.org/2000/svg" viewBox="0 0 414.01 427.46"><defs><style>.cls-1,.cls-2{fill:#fff;stroke-miterlimit:10;}.cls-1{stroke:#231f20;}.cls-2{stroke:#fff;}</style></defs><title>floorplan</title><rect class="cls-1" x="0.5" y="64.59" width="102.07" height="250.81"/><rect class="cls-1" x="248.94" y="93.07" width="164.57" height="333.89"/><rect class="cls-1" x="343.09" y="176.94" width="70.42" height="138.46"/><rect class="cls-1" x="299.18" y="93.07" height="53.8"/><polygon class="cls-2" points="248.94 151.22 211.36 151.22 211.36 187.22 248.94 187.22 262.92 187.22 262.92 151.22 248.94 151.22"/><rect class="cls-1" x="211.36" y="93.07" width="37.58" height="58.15"/><rect class="cls-1" x="169.42" y="93.07" width="41.93" height="94.15"/><rect class="cls-1" x="102.57" y="93.07" width="66.86" height="94.15"/><rect class="cls-1" x="169.42" y="187.23" width="79.52" height="34.02"/><rect class="cls-1" x="102.57" y="221.25" width="66.86" height="94.15"/><rect class="cls-1" x="169.42" y="221.25" width="79.52" height="94.15"/><rect class="cls-1" x="102.57" y="187.23" width="66.86" height="34.02"/><rect class="cls-1" x="0.5" y="64.59" width="102.07" height="28.48"/><rect class="cls-1" x="0.5" y="93.07" width="102.07" height="94.15"/><rect class="cls-1" x="0.5" y="0.5" width="102.07" height="64.09"/></svg>